<svg version="1" xmlns="http://www.w3.org/2000/svg" width="122.667" height="122.667" viewBox="0 0 92.000000 92.000000"><path d="M38.1 1C31 2.1 20.7 7.4 14.5 13.2 7.8 19.4 2.2 30.2.9 39.5-1.9 59.6 8.2 78.4 27 87.7c7.4 3.7 7.7 3.8 19.1 3.8h11.6l8.5-4.2c10.5-5.2 16.5-11.4 21.6-22.1 3.6-7.5 3.7-8 3.7-19.2 0-11.3-.1-11.6-3.8-19C80.8 13.1 68.1 3.3 53.9 1c-7.1-1.1-8-1.1-15.8 0zM41 30c2.2 1.1 5.2 3.9 6.7 6.2 2.4 3.5 2.8 5.2 2.8 10.7-.1 9.4-2.7 14.1-10 17.6-6.9 3.4-12.5 3-19-1.5-3.8-2.6-4.7-4-6.1-8.7-1.9-6.6-.8-14.5 2.7-19.5 4.6-6.3 15.4-8.6 22.9-4.8zm37 2v3H65v10h12v6H65v15h-8V29h21v3z"/><path d="M26.4 37.3c-2.2 1.9-2.8 3.4-3.2 8-.6 7 1.1 11.3 5.1 13.3 4.5 2.4 9.1 1.1 11.8-3.2 1.7-2.9 2.1-4.6 1.7-9.6-.4-5.1-.9-6.5-3.2-8.5-3.6-3-8.6-3-12.2 0z"/></svg>